<svg xmlns="http://www.w3.org/2000/svg" xmlns:xlink="http://www.w3.org/1999/xlink" width="500" zoomAndPan="magnify" viewBox="0 0 375 374.999991" height="500" preserveAspectRatio="xMidYMid meet" version="1.0"><defs><g id="et"/></defs><g fill="#ffffff" fill-opacity="1"><g transform="translate(-1.776899, 294.854909)"><g><path d="M 19.03125 0 L 75.25 0 L 75.25 -238.890625 L 19.03125 -238.890625 Z M 153.21875 -217.578125 C 170.890625 -199 174.515625 -183.578125 174.515625 -183.578125 L 174.515625 -238.890625 L 118.765625 -238.890625 C 118.765625 -238.890625 135.984375 -235.71875 153.21875 -217.578125 Z M 133.71875 -158.203125 C 133.71875 -158.203125 131 -145.96875 117.40625 -131.90625 C 106.078125 -119.671875 94.734375 -115.140625 91.5625 -115.140625 C 94.734375 -115.140625 106.078125 -110.609375 117.40625 -98.359375 C 131 -84.3125 133.71875 -72.078125 133.71875 -72.078125 Z M 159.109375 -25.390625 C 139.15625 -3.625 118.765625 0 118.765625 0 L 184.484375 0 L 184.484375 -65.28125 C 184.484375 -65.28125 179.5 -46.6875 159.109375 -25.390625 Z M 159.109375 -25.390625 "/></g></g></g><g fill="#ffffff" fill-opacity="1"><g transform="translate(156.420073, 294.854909)"><g><path d="M 19.03125 -183.578125 C 19.03125 -183.578125 23.125 -199 40.34375 -217.578125 C 57.5625 -235.71875 74.796875 -238.890625 74.796875 -238.890625 L 19.03125 -238.890625 Z M 82.046875 0 L 138.25 0 L 138.25 -238.890625 L 82.046875 -238.890625 Z M 201.265625 -183.578125 L 201.265625 -238.890625 L 145.515625 -238.890625 C 145.515625 -238.890625 162.734375 -235.71875 179.953125 -217.578125 C 197.1875 -199 201.265625 -183.578125 201.265625 -183.578125 Z M 201.265625 -183.578125 "/></g></g></g></svg>